<svg xmlns="http://www.w3.org/2000/svg" viewBox="0 0 64 64">
  <defs>
    <linearGradient id="taxdoc-icon-bg" x1="0%" y1="0%" x2="100%" y2="100%">
      <stop offset="0%" stop-color="#3b82f6"/>
      <stop offset="100%" stop-color="#2563eb"/>
    </linearGradient>
  </defs>
  <rect width="64" height="64" rx="14" fill="url(#taxdoc-icon-bg)"/>
  <path d="M18 16h20l8 8v28a2 2 0 0 1-2 2H18a2 2 0 0 1-2-2V18a2 2 0 0 1 2-2z" fill="#fff" opacity="0.96"/>
  <path d="M38 16v8h8" fill="#e0e7ff"/>
  <rect x="20" y="30" width="18" height="2" rx="1" fill="#93c5fd"/>
  <rect x="20" y="36" width="24" height="2" rx="1" fill="#93c5fd"/>
  <rect x="20" y="42" width="20" height="2" rx="1" fill="#93c5fd"/>
  <circle cx="46" cy="46" r="10" fill="#22c55e"/>
  <path d="M41 46l3.5 3.5 7-7" stroke="#fff" stroke-width="2.5" stroke-linecap="round" stroke-linejoin="round" fill="none"/>
</svg>
